<svg width="64" height="64" viewBox="0 0 64 64" fill="none" xmlns="http://www.w3.org/2000/svg">
<rect width="64" height="64" rx="15" fill="#008B1D"/>
<path d="M38.0129 49.06C35.1023 52.2638 29.9807 52.2945 27.0314 49.1257C25.7141 47.7104 26.7373 45.4431 28.6986 45.4314L36.3012 45.3859C38.2624 45.3741 39.313 47.6289 38.0129 49.06Z" fill="white"/>
<path d="M32.5 11C43.8218 11 53 20.0554 53 31.2256C53 37.6757 49.9392 43.4206 45.1729 47.124C43.638 48.3164 41.4703 47.9228 40.1709 46.4834L36.043 41.9102C34.3791 40.067 31.4578 40.067 29.7939 41.9102L25.3262 46.8594C24.0595 48.2626 21.962 48.6793 20.4238 47.5713C15.3175 43.8928 12 37.9412 12 31.2256C12 20.0554 21.1782 11 32.5 11ZM37.4912 29.1992C34.2313 28.218 30.7687 28.218 27.5088 29.1992C25.7087 29.7411 25.0671 32.0391 26.3105 33.4912L30.1855 38.0146C31.4162 39.4515 33.5838 39.4515 34.8145 38.0146L38.6885 33.4912C39.9322 32.0391 39.2913 29.7412 37.4912 29.1992ZM23.3887 20.8701C21.7116 20.8702 20.3517 22.2301 20.3516 23.9072C20.3516 25.5845 21.7115 26.9442 23.3887 26.9443C25.066 26.9443 26.4258 25.5845 26.4258 23.9072C26.4256 22.2301 25.0659 20.8701 23.3887 20.8701ZM41.6113 20.8701C39.9341 20.8701 38.5744 22.2301 38.5742 23.9072C38.5742 25.5845 39.934 26.9443 41.6113 26.9443C43.2885 26.9442 44.6484 25.5845 44.6484 23.9072C44.6483 22.2301 43.2884 20.8702 41.6113 20.8701Z" fill="white"/>
</svg>
